PathFileType	4	(X/Y/Z)	RBDS011\RBDS011runT25.trc
DataRate	CameraRate	NumFrames	NumMarkers	Units	OrigDataRate	OrigDataStartFrame	OrigNumFrames
150.000000	150.000000	4	33	mm	150.000000	3375	4500
Frame#	Time	L.ASIS			L.Heel.Bottom			L.Heel.Lateral			L.Heel.Top			L.Iliac.Crest			L.MT1			L.MT5			L.PSIS			L.Shank.Bottom.Lateral			L.Shank.Bottom.Medial			L.Shank.Top.Lateral			L.Shank.Top.Medial			L.Thigh.Bottom.Lateral			L.Thigh.Bottom.Medial			L.Thigh.Top.Lateral			L.Thigh.Top.Medial			R.ASIS			R.ASY			R.Heel.Bottom			R.Heel.Lateral			R.Heel.Top			R.Iliac.Crest			R.MT1			R.MT5			R.PSIS			R.Shank.Bottom.Lateral			R.Shank.Bottom.Medial			R.Shank.Top.Lateral			R.Shank.Top.Medial			R.Thigh.Bottom.Lateral			R.Thigh.Bottom.Medial			R.Thigh.Top.Lateral			R.Thigh.Top.Medial			
		X1	Y1	Z1	X2	Y2	Z2	X3	Y3	Z3	X4	Y4	Z4	X5	Y5	Z5	X6	Y6	Z6	X7	Y7	Z7	X8	Y8	Z8	X9	Y9	Z9	X10	Y10	Z10	X11	Y11	Z11	X12	Y12	Z12	X13	Y13	Z13	X14	Y14	Z14	X15	Y15	Z15	X16	Y16	Z16	X17	Y17	Z17	X18	Y18	Z18	X19	Y19	Z19	X20	Y20	Z20	X21	Y21	Z21	X22	Y22	Z22	X23	Y23	Z23	X24	Y24	Z24	X25	Y25	Z25	X26	Y26	Z26	X27	Y27	Z27	X28	Y28	Z28	X29	Y29	Z29	X30	Y30	Z30	X31	Y31	Z31	X32	Y32	Z32	X33	Y33	Z33	

3376	22.5	2219.890439140278	1020.135645749783	927.0740670838541	2240.61081692965	34.01481871956943	1022.479586443708	2262.517098805438	47.43209247842611	981.4237847937297	2243.407465534091	82.76293260624804	1018.972618448257	2161.82947220191	1103.229646419804	893.328432991259	2459.605372904468	82.20292989823264	1055.51389164532	2432.349853456165	61.10503435371697	944.3502382689288	2056.324307726024	1056.308409414324	996.7571269714209	2281.992389453048	186.542560935364	953.4513092997604	2248.048603951113	188.3634220239523	997.0745075801449	2264.481786992355	263.5934121999299	936.8730977391366	2231.613563771785	266.0939716784142	979.8955621605019	2251.267729095463	639.8073512300589	892.0895153853726	2192.258946255123	615.9572712858144	927.5111548736681	2199.503904959014	736.175929368064	876.8388870906546	2144.368894163764	714.4986993349123	911.0844652322023	2221.321816669553	1005.346755053197	1170.950349578174	1703.807008676599	220.494186069251	1118.695352811806	1589.837206930965	372.9042608031401	1094.184834229897	1610.466811798078	355.1149671147668	1138.255151108208	1639.983873185592	377.6007976974931	1100.052166487621	2185.401919598959	1078.312979982836	1200.633157370038	1673.561400896932	163.2276734501026	1065.220033979799	1643.972214129002	186.0417842061508	1176.903916773157	2057.300879263387	1057.742160903731	1100.82672312679	1722.647526422012	369.0720558983859	1157.997432455341	1715.217761668103	399.5529993754955	1117.290953427719	1793.853022424774	412.0980802637874	1175.005835830132	1780.79697550214	443.7686958154914	1134.138731409116	2067.982144637252	625.069161197837	1201.738316759508	2013.231597195223	640.0892224382858	1153.639362804467	2078.562629179832	732.7358292564264	1219.002057858598	2025.674613722231	747.7341663129286	1177.144136850556	
3377	22.50666666666667	2219.59146366544	1016.224768266245	925.9997783848337	2229.642284253654	32.6288521228229	1023.292127376876	2251.805316631639	45.63884827753505	982.3112044987287	2233.926281760673	81.28728664939172	1020.223966218512	2160.529865641402	1098.113550220863	892.8905818146492	2450.136924099183	74.60145006447455	1056.20411536922	2422.054463160754	55.49492130100958	944.7241856124123	2056.24009954946	1050.645217034944	997.5416201571888	2275.449174427536	182.3999046148006	954.226100653103	2241.298321205281	185.2821148664676	997.5443053448939	2259.808381810172	259.7363299594586	937.2119234760643	2226.83850364736	263.2353689406808	980.0139846483088	2251.320494810823	635.7961883652672	892.202141960675	2192.435850223344	611.7414315140395	927.6878634093499	2199.347277525044	732.0650555817092	877.1766116979832	2144.275595762652	710.1691538801124	911.4220938312144	2222.505745634428	1001.565142348797	1170.564800488522	1703.393026003346	228.5107767370175	1119.331919321065	1592.534811182879	382.8603130249689	1094.235069264567	1613.051650860302	365.0833769071654	1138.218653288464	1642.807278731911	386.5125020225832	1099.601869947081	2186.364046490141	1074.150418485918	1200.864618222236	1671.647518057682	171.3822285868368	1066.55703961838	1643.255359004555	195.882397610212	1178.233856627466	2058.064065630407	1052.310459598043	1101.538485117087	1725.839071701043	375.720615292572	1157.769790110598	1719.616175756516	406.238469143896	1116.878282663455	1798.483017960868	416.1999843990579	1174.802787196385	1786.794881186963	448.0371241942026	1133.682861423009	2074.078872688806	619.0998495591305	1202.356674218875	2019.854942250029	633.0309530151197	1153.410724807097	2082.646057881782	726.9853365876779	1219.322940473837	2030.078335956843	740.9977974377525	1176.841130230798	
3378	22.51333333333334	2219.237979662639	1011.910462155811	924.9308381695321	2217.151093395612	31.62210986503802	1023.856022409893	2239.671145485255	44.33540204625351	983.0367721394658	2222.988948723291	80.18251322128106	1021.383887811512	2159.323545555658	1092.511488599086	892.4811253591593	2439.093299198576	67.15555063033757	1057.280384784102	2410.41681438564	50.42637913926689	945.3853566930859	2056.061566243399	1044.678806282924	998.3413387053148	2268.091713730092	178.4986296276832	955.0867068937504	2233.555951506593	182.643904231487	997.8783542555548	2254.764655128379	256.0952150969281	937.5337859814484	2221.556108693647	260.7818638481312	979.951144099266	2251.463658065101	631.5639408049401	892.0959276328924	2192.838362683813	607.3064406622776	927.8268817685654	2199.183344922947	727.6645155782822	877.2842717288088	2144.304957259711	705.5509459155862	911.6882761487515	2223.617426687762	997.3706303195672	1170.13669864046	1703.918353395059	236.0140911885013	1120.025030181835	1596.418524318155	392.3327107775768	1094.246847600744	1616.764757707977	374.5831467557879	1138.172976491567	1646.796180091535	394.9509529177216	1099.185752962135	2187.403199659316	1069.527727952719	1201.08417665595	1670.645369381591	179.0868426478032	1067.938809555927	1643.435655938351	205.2751239588004	1179.537101406707	2058.753597154582	1046.514147919372	1102.288549785457	1729.945244251591	381.8948826078895	1157.633192575227	1724.923514999974	412.3370369815054	1116.526374935724	1803.890768388622	419.8567478088743	1174.701490212911	1793.548341149733	451.7495320164103	1133.302604579769	2080.049994931595	612.9549641928393	1203.11348467851	2026.467365852397	625.7359097410709	1153.213707325313	2086.526495407915	721.0381227236792	1219.688561861828	2034.417893685056	734.01244056874	1176.419561960869	
3379	22.52	2218.812478388586	1007.245644190383	923.8854350914027	2203.394262168232	31.03192782612422	1024.262648946572	2226.325647775747	43.57655758627498	983.6646806906492	2210.771701732388	79.4882018475338	1022.51287164775	2158.248592572373	1086.441789793768	892.0911633160138	2426.69467630796	60.25253224140854	1058.625781294028	2397.587203911474	46.15153152022544	946.2600435428878	2055.762336648322	1038.499011224026	999.1233021441968	2259.990291782222	175.0158354739802	956.0653870893873	2224.936413717073	180.6135144583153	998.1394929145615	2249.382907701322	252.8165273417881	937.8879125714957	2215.842064370489	258.869377116955	979.7839080101552	2251.675599407414	627.2038994420891	891.7820702828863	2193.456624314201	602.7543872198203	927.9548622331941	2198.984100722972	723.0619079711979	877.1528723272345	2144.441388732351	700.7420048567567	911.8872641199255	2224.636652380426	992.7936892489479	1169.64238269618	1705.394325388337	242.9026751289927	1120.798560439693	1601.486870744003	401.2202375456768	1094.14411618615	1621.577508410093	383.5158324514717	1138.067607605554	1651.945049965469	402.8236831488255	1098.768795444531	2188.484160072809	1064.429230597633	1201.269636970593	1670.606677252632	186.2398309287075	1069.374230854475	1644.485676319479	214.1194569687272	1180.805916969737	2059.317006552052	1040.415410125446	1103.043747678537	1734.955244449345	387.5285773390949	1157.596348558294	1731.12746739542	417.7888077721906	1116.246880162653	1810.062982431301	423.0219876964094	1174.724457919155	1801.041555186837	454.8670193397099	1133.023326663066	2085.91811888124	606.7105893613037	1204.011988727841	2033.029420540161	618.2888391232347	1153.121051809544	2090.245445448757	714.964034581874	1220.100632399336	2038.692681711477	726.8485540606932	1175.932548507973	
